<svg width="49" height="28" viewBox="0 0 49 28" fill="none" xmlns="http://www.w3.org/2000/svg">
<path d="M9.60686 21.6401C3.01508 18.3623 0 14 0 14C0 14 7.53769 3.08212 24.495 3.08212C26.9485 3.08212 29.2048 3.23704 31.274 3.70181L29.7664 4.94933C28.0717 4.79441 26.3769 4.63949 24.4949 4.63949C9.41955 4.63949 2.25628 14 2.25628 14C2.25628 14 5.08415 17.7426 10.9271 20.5475L9.60686 21.6401ZM16.9573 14C16.9573 14.4648 16.9573 14.9377 17.1445 15.4024L18.8393 14C18.8393 12.7525 19.4009 11.6599 20.534 10.7222C21.6672 9.78451 23.1747 9.31974 24.495 9.31974L26.1899 7.9173C25.6281 7.76238 25.0568 7.76238 24.495 7.76238C20.3468 7.76238 16.9573 10.5673 16.9573 14ZM39.3831 6.35993L38.063 7.45253C43.9058 10.2574 46.7338 14 46.7338 14C46.7338 14 39.5704 23.3605 24.495 23.3605C22.6131 23.3605 20.9183 23.2057 19.2236 23.0507L17.716 24.2982C19.7852 24.763 22.0514 24.918 24.5049 24.918C41.4623 24.918 49 14.0001 49 14.0001C49 14.0001 45.975 9.63774 39.3831 6.35993ZM39.5507 0L7.5771 26.4589L9.43935 28L41.4228 1.53291L39.5507 0ZM28.4561 17.2779C27.323 18.2156 26.0027 18.6803 24.495 18.6803L22.8003 20.0827C23.3619 20.2376 23.9334 20.2376 24.495 20.2376C28.6431 20.2376 32.0327 17.4327 32.0327 14C32.0327 13.5352 32.0327 13.0623 31.8455 12.5976L30.1508 14C30.1508 15.2475 29.5792 16.3402 28.4561 17.2779Z" fill="white"/>
</svg>
