<svg width="30" height="30" viewBox="0 0 30 30" fill="none" xmlns="http://www.w3.org/2000/svg">
<path d="M14.474 10.002C13.374 10.002 12.317 10.464 11.508 11.197C10.583 12.037 9.99998 13.244 9.99998 14.491C9.99998 15.156 11 15.179 11 14.515C11 13.55 11.466 12.585 12.182 11.935C12.809 11.365 13.652 11.027 14.5 11.001C15.155 11.001 15.172 10.003 14.474 10.003V10.002ZM15 8C11.14 8 7.99998 11.14 7.99998 15C7.99998 18.86 11.14 22 15 22C18.86 22 22 18.86 22 15C22 11.14 18.86 8 15 8ZM15 9C18.32 9 21 11.68 21 15C21 18.32 18.32 21 15 21C11.68 21 8.99998 18.32 8.99998 15C8.99998 11.68 11.68 9 15 9ZM15 6C10.117 6 6.37498 7.953 3.86998 10.02C2.61598 11.053 1.66998 12.115 1.02698 12.988C0.706976 13.425 0.461977 13.814 0.290977 14.138C0.120977 14.463 0.000976562 14.658 0.000976562 15C0.000976562 15.34 0.120977 15.537 0.290977 15.86C0.462977 16.186 0.706977 16.575 1.02798 17.012C1.66998 17.885 2.61798 18.947 3.86998 19.98C6.37398 22.047 10.116 24 15 24C19.883 24 23.625 22.047 26.13 19.98C27.384 18.947 28.33 17.885 28.973 17.012C29.293 16.575 29.538 16.186 29.709 15.862C29.879 15.537 29.999 15.342 29.999 15C29.999 14.66 29.879 14.463 29.709 14.14C29.537 13.814 29.293 13.425 28.972 12.988C28.33 12.115 27.382 11.053 26.13 10.02C23.626 7.953 19.884 6 15 6ZM15 7C19.617 7 23.125 8.838 25.494 10.79C26.679 11.768 27.576 12.774 28.168 13.58C28.464 13.983 28.683 14.338 28.824 14.604C28.999 14.931 28.96 15.154 28.824 15.396C28.677 15.659 28.464 16.016 28.168 16.42C27.576 17.226 26.678 18.232 25.494 19.21C23.124 21.16 19.617 23 15 23C10.383 23 6.87498 21.162 4.50598 19.21C3.32098 18.232 2.42398 17.226 1.83198 16.42C1.53598 16.017 1.32198 15.66 1.17598 15.396C1.03598 15.146 1.00598 14.911 1.17598 14.604C1.32098 14.34 1.53598 13.984 1.83198 13.58C2.42398 12.774 3.32198 11.768 4.50598 10.79C6.87598 8.84 10.383 7 15 7Z" fill="white"/>
</svg>
